<svg width="38" height="47" viewBox="0 0 38 47" fill="none" xmlns="http://www.w3.org/2000/svg">
<g id="Bookmark_fill">
<path id="Rectangle 1" d="M6 16.5492C6 11.8261 6 9.46457 7.37294 7.9973C8.74587 6.53003 10.9556 6.53003 15.375 6.53003H21.625C26.0444 6.53003 28.2541 6.53003 29.6271 7.9973C31 9.46457 31 11.8261 31 16.5492V27.9503C31 32.431 31 34.6714 29.6808 35.3566C28.3616 36.0418 26.7132 34.6577 23.4165 31.8894L22.3614 31.0035C20.5077 29.4469 19.5808 28.6686 18.5 28.6686C17.4192 28.6686 16.4923 29.4469 14.6386 31.0035L13.5835 31.8894C10.2868 34.6577 8.63842 36.0418 7.31921 35.3566C6 34.6714 6 32.431 6 27.9503V16.5492Z" fill="#EF4E2B" stroke="#EF4E2B" stroke-width="2"/>
<path id="2" d="M20.2051 17V25H18.9941V18.2109H18.9473L17.0332 19.4609V18.3047L19.0293 17H20.2051Z" fill="white"/>
</g>
</svg>
