<svg width="38" height="47" viewBox="0 0 38 47" fill="none" xmlns="http://www.w3.org/2000/svg">
<g id="Bookmark_fill">
<path id="Rectangle 1" d="M6 16.5492C6 11.8261 6 9.46457 7.37294 7.9973C8.74587 6.53003 10.9556 6.53003 15.375 6.53003H21.625C26.0444 6.53003 28.2541 6.53003 29.6271 7.9973C31 9.46457 31 11.8261 31 16.5492V27.9503C31 32.431 31 34.6714 29.6808 35.3566C28.3616 36.0418 26.7132 34.6577 23.4165 31.8894L22.3614 31.0035C20.5077 29.4469 19.5808 28.6686 18.5 28.6686C17.4192 28.6686 16.4923 29.4469 14.6386 31.0035L13.5835 31.8894C10.2868 34.6577 8.63842 36.0418 7.31921 35.3566C6 34.6714 6 32.431 6 27.9503V16.5492Z" fill="#58B778" stroke="#58B778" stroke-width="2"/>
<path id="3" d="M18.0098 25.1094C17.4733 25.1094 16.9941 25.0169 16.5723 24.832C16.153 24.6471 15.821 24.3906 15.5762 24.0625C15.334 23.7318 15.2038 23.349 15.1855 22.9141H16.4121C16.4277 23.151 16.5072 23.3568 16.6504 23.5312C16.7962 23.7031 16.9863 23.8359 17.2207 23.9297C17.4551 24.0234 17.7155 24.0703 18.002 24.0703C18.3171 24.0703 18.5957 24.0156 18.8379 23.9063C19.0827 23.7969 19.2741 23.6445 19.4121 23.4492C19.5501 23.2513 19.6191 23.0234 19.6191 22.7656C19.6191 22.4974 19.5501 22.2617 19.4121 22.0586C19.2767 21.8529 19.0775 21.6914 18.8145 21.5742C18.554 21.457 18.2389 21.3984 17.8691 21.3984H17.1934V20.4141H17.8691C18.166 20.4141 18.4264 20.3607 18.6504 20.2539C18.877 20.1471 19.054 19.9987 19.1816 19.8086C19.3092 19.6159 19.373 19.3906 19.373 19.1328C19.373 18.8854 19.3171 18.6706 19.2051 18.4883C19.0957 18.3034 18.9395 18.1589 18.7363 18.0547C18.5358 17.9505 18.2988 17.8984 18.0254 17.8984C17.765 17.8984 17.5215 17.9466 17.2949 18.043C17.071 18.1367 16.8887 18.2721 16.748 18.4492C16.6074 18.6237 16.5319 18.8333 16.5215 19.0781H15.3535C15.3665 18.6458 15.4941 18.2656 15.7363 17.9375C15.9811 17.6094 16.304 17.3529 16.7051 17.168C17.1061 16.9831 17.5514 16.8906 18.041 16.8906C18.554 16.8906 18.9967 16.9909 19.3691 17.1914C19.7441 17.3893 20.0332 17.6536 20.2363 17.9844C20.4421 18.3151 20.5436 18.6771 20.541 19.0703C20.5436 19.5182 20.4186 19.8984 20.166 20.2109C19.916 20.5234 19.5827 20.7331 19.166 20.8398V20.9023C19.6973 20.9831 20.1087 21.194 20.4004 21.5352C20.6947 21.8763 20.8405 22.2995 20.8379 22.8047C20.8405 23.2448 20.7181 23.6393 20.4707 23.9883C20.2259 24.3372 19.8913 24.612 19.4668 24.8125C19.0423 25.0104 18.5566 25.1094 18.0098 25.1094Z" fill="white"/>
</g>
</svg>
