<svg width="38" height="47" viewBox="0 0 38 47" fill="none" xmlns="http://www.w3.org/2000/svg">
<g id="Bookmark_fill">
<path id="Rectangle 1" d="M6 16.5492C6 11.8261 6 9.46457 7.37294 7.9973C8.74587 6.53003 10.9556 6.53003 15.375 6.53003H21.625C26.0444 6.53003 28.2541 6.53003 29.6271 7.9973C31 9.46457 31 11.8261 31 16.5492V27.9503C31 32.431 31 34.6714 29.6808 35.3566C28.3616 36.0418 26.7132 34.6577 23.4165 31.8894L22.3614 31.0035C20.5077 29.4469 19.5808 28.6686 18.5 28.6686C17.4192 28.6686 16.4923 29.4469 14.6386 31.0035L13.5835 31.8894C10.2868 34.6577 8.63842 36.0418 7.31921 35.3566C6 34.6714 6 32.431 6 27.9503V16.5492Z" fill="#735DFE" stroke="#735DFE" stroke-width="2"/>
<path id="2" d="M16.0074 25V24.1368L18.5741 21.3699C18.8481 21.0694 19.0741 20.806 19.2519 20.58C19.4321 20.3513 19.5667 20.1342 19.6556 19.9287C19.7444 19.7232 19.7889 19.5048 19.7889 19.2736C19.7889 19.0116 19.7296 18.7855 19.6111 18.5954C19.4926 18.4027 19.3309 18.255 19.1259 18.1522C18.921 18.0469 18.6901 17.9942 18.4333 17.9942C18.1617 17.9942 17.9247 18.052 17.7222 18.1676C17.5198 18.2832 17.3642 18.4464 17.2556 18.657C17.1469 18.8677 17.0926 19.1143 17.0926 19.3969H16C16 18.9165 16.1062 18.4965 16.3185 18.1368C16.5309 17.7771 16.8222 17.4984 17.1926 17.3006C17.563 17.1002 17.984 17 18.4556 17C18.9321 17 19.3519 17.0989 19.7148 17.2967C20.0802 17.492 20.3654 17.7592 20.5704 18.0983C20.7753 18.4348 20.8778 18.815 20.8778 19.2389C20.8778 19.5318 20.8247 19.8182 20.7185 20.0983C20.6148 20.3783 20.4333 20.6904 20.1741 21.0347C19.9148 21.3764 19.5543 21.7913 19.0926 22.2794L17.5852 23.921V23.9788H21V25H16.0074Z" fill="white"/>
</g>
</svg>
