<svg width="20" height="20" viewBox="0 0 20 20" fill="none" xmlns="http://www.w3.org/2000/svg">
<g id="ic -menu">
<path id="icon" d="M8.125 5.46875C8.125 4.70703 8.74023 4.0625 9.53125 4.0625H10.4688C11.2305 4.0625 11.875 4.70703 11.875 5.46875V15.7812C11.875 16.5723 11.2305 17.1875 10.4688 17.1875H9.53125C8.74023 17.1875 8.125 16.5723 8.125 15.7812V5.46875ZM3.4375 11.0938C3.4375 10.332 4.05273 9.6875 4.84375 9.6875H5.78125C6.54297 9.6875 7.1875 10.332 7.1875 11.0938V15.7812C7.1875 16.5723 6.54297 17.1875 5.78125 17.1875H4.84375C4.05273 17.1875 3.4375 16.5723 3.4375 15.7812V11.0938ZM15.1562 5.9375C15.918 5.9375 16.5625 6.58203 16.5625 7.34375V15.7812C16.5625 16.5723 15.918 17.1875 15.1562 17.1875H14.2188C13.4277 17.1875 12.8125 16.5723 12.8125 15.7812V7.34375C12.8125 6.58203 13.4277 5.9375 14.2188 5.9375H15.1562Z" fill="white"/>
</g>
</svg>
