<svg width="11" height="15" viewBox="0 0 11 15" fill="none" xmlns="http://www.w3.org/2000/svg">
<path id="magazine.fill" d="M0.25 12.7286C0.25 13.2246 0.361857 13.5257 0.798098 13.7501C1.76007 14.2048 3.10235 14.4941 4.67953 14.5C6.30145 14.4941 8.10794 14.2343 9.36633 13.5966C10.0654 13.2364 10.25 12.9057 10.25 12.1322V3.10396C10.25 2.09426 9.80817 1.61598 8.89094 1.61598H8.35962V1.41523C8.35962 0.801139 8.04642 0.5 7.52069 0.5C7.34172 0.5 7.12919 0.541333 6.88311 0.629903C5.19407 1.20266 3.65045 1.58646 1.68177 1.58646H1.25671C0.613535 1.58646 0.25 1.97617 0.25 2.59616V12.7286ZM3.16946 13.3309C5.16051 13.2482 6.95022 12.6695 7.93456 11.8783C8.24217 11.6303 8.35962 11.3823 8.35962 10.8332V2.72606H8.86298C9.09228 2.72606 9.19855 2.85006 9.19855 3.12168V12.0141C9.19855 12.3625 9.14262 12.5101 8.82383 12.6518C7.80593 13.1242 6.40772 13.4194 5.08221 13.4372C4.44463 13.4431 3.82942 13.4135 3.16946 13.3309ZM2.30817 6.20392V4.17862C2.30817 4.09595 2.36969 4.02509 2.44799 4.01919C3.73993 3.96605 4.90324 3.74167 6.10011 3.2693C6.17282 3.24568 6.28468 3.2752 6.28468 3.41691V5.51898C6.28468 5.57212 6.25671 5.62526 6.20638 5.64888C5.16051 6.09764 3.78468 6.34563 2.44799 6.34563C2.37528 6.34563 2.30817 6.2984 2.30817 6.20392Z" fill="white"/>
</svg>
