<svg width="24" height="24" viewBox="0 0 24 24" fill="none" xmlns="http://www.w3.org/2000/svg">
<g id="note.text">
<path id="note.text_2" d="M6.80933 18.7551H17.1829C18.8177 18.7551 19.669 17.9114 19.669 16.2992V7.13096C19.669 5.5188 18.8177 4.67505 17.1829 4.67505H6.80933C5.18209 4.67505 4.33081 5.51127 4.33081 7.13096V16.2992C4.33081 17.9114 5.18209 18.7551 6.80933 18.7551ZM6.80179 17.256C6.17651 17.256 5.82997 16.932 5.82997 16.2691V9.33827C5.82997 8.67533 6.17651 8.35139 6.80179 8.35139H17.1905C17.8157 8.35139 18.1623 8.67533 18.1623 9.33827V16.2691C18.1623 16.932 17.8157 17.256 17.1905 17.256H6.80179ZM8.09002 11.0559H15.9173C16.1885 11.0559 16.3919 10.845 16.3919 10.5662C16.3919 10.3026 16.1885 10.0992 15.9173 10.0992H8.09002C7.81128 10.0992 7.60788 10.3026 7.60788 10.5662C7.60788 10.845 7.81128 11.0559 8.09002 11.0559ZM8.09002 13.2783H15.9173C16.1885 13.2783 16.3919 13.0749 16.3919 12.8112C16.3919 12.54 16.1885 12.3215 15.9173 12.3215H8.09002C7.81128 12.3215 7.60788 12.54 7.60788 12.8112C7.60788 13.0749 7.81128 13.2783 8.09002 13.2783ZM8.09002 15.5007H13.032C13.3032 15.5007 13.5066 15.2973 13.5066 15.0336C13.5066 14.7624 13.3032 14.5514 13.032 14.5514H8.09002C7.81128 14.5514 7.60788 14.7624 7.60788 15.0336C7.60788 15.2973 7.81128 15.5007 8.09002 15.5007Z" fill="#F2BFB5"/>
</g>
</svg>
